<?xml version="1.0" encoding="UTF-8"?>
<svg xmlns="http://www.w3.org/2000/svg" xmlns:xlink="http://www.w3.org/1999/xlink" width="375pt" height="374.999991pt" viewBox="0 0 375 374.999991" version="1.2">
<defs>
<clipPath id="clip1">
  <path d="M 16 30.847656 L 359 30.847656 L 359 344.347656 L 16 344.347656 Z M 16 30.847656 "/>
</clipPath>
</defs>
<g id="surface1">
<g clip-path="url(#clip1)" clip-rule="nonzero">
<path style=" stroke:none;fill-rule:nonzero;fill:rgb(0%,0%,0%);fill-opacity:1;" d="M 16.746094 250.296875 C 16.746094 256.566406 19.882812 261.269531 24.585938 264.40625 L 179.777344 342.78125 C 181.347656 344.347656 184.480469 344.347656 187.617188 344.347656 C 190.753906 344.347656 192.320312 344.347656 195.457031 342.78125 L 350.648438 264.40625 C 355.351562 261.269531 358.488281 256.566406 358.488281 250.296875 C 358.488281 244.027344 355.351562 239.324219 350.648438 236.191406 L 316.164062 218.945312 L 350.648438 201.703125 C 355.351562 198.570312 358.488281 193.867188 358.488281 187.597656 C 358.488281 181.328125 355.351562 176.625 349.082031 173.488281 L 316.164062 156.246094 L 350.648438 139.003906 C 355.351562 135.871094 358.488281 131.167969 358.488281 124.898438 C 358.488281 118.628906 355.351562 113.925781 350.648438 110.789062 L 195.457031 32.414062 C 193.886719 30.847656 192.320312 30.847656 190.753906 30.847656 C 187.617188 30.847656 184.480469 30.847656 181.347656 32.414062 L 26.152344 110.789062 C 19.882812 113.925781 16.746094 118.628906 16.746094 124.898438 C 16.746094 131.167969 19.882812 135.871094 24.585938 139.003906 L 59.074219 156.246094 L 24.585938 173.488281 C 19.882812 176.625 16.746094 181.328125 16.746094 187.597656 C 16.746094 193.867188 19.882812 198.570312 24.585938 201.703125 L 59.074219 218.945312 L 24.585938 236.191406 C 19.882812 239.324219 16.746094 244.027344 16.746094 250.296875 Z M 66.910156 187.597656 L 93.558594 173.488281 L 148.425781 201.703125 L 179.777344 217.378906 C 181.347656 217.378906 182.914062 218.945312 184.480469 218.945312 C 184.480469 218.945312 186.050781 218.945312 186.050781 218.945312 C 186.050781 218.945312 186.050781 218.945312 187.617188 218.945312 C 187.617188 218.945312 189.183594 218.945312 189.183594 218.945312 C 189.183594 218.945312 189.183594 218.945312 190.753906 218.945312 C 192.320312 218.945312 195.457031 218.945312 197.023438 217.378906 L 226.808594 201.703125 L 281.675781 173.488281 L 308.324219 187.597656 L 187.617188 248.730469 Z M 189.183594 65.332031 L 308.324219 124.898438 L 189.183594 184.460938 L 171.941406 176.625 L 164.101562 173.488281 L 101.398438 142.140625 L 68.476562 124.898438 Z M 179.777344 280.078125 C 181.347656 281.648438 184.480469 281.648438 187.617188 281.648438 C 190.753906 281.648438 192.320312 281.648438 195.457031 280.078125 L 281.675781 236.191406 L 308.324219 250.296875 L 187.617188 311.429688 L 66.910156 250.296875 L 93.558594 236.191406 Z M 179.777344 280.078125 "/>
</g>
</g>
</svg>
